<svg width="137" height="31" viewBox="0 0 137 31" fill="none" xmlns="http://www.w3.org/2000/svg">
<g clip-path="url(#clip0_41776_4)">
<path d="M136.47 13.7826V11.3563H133.489V7.5847L133.389 7.61597L130.59 8.48166L130.535 8.49864V11.3566H126.116V9.76484C126.116 9.02366 126.28 8.45606 126.603 8.07765C126.924 7.70383 127.383 7.51382 127.968 7.51382C128.39 7.51382 128.825 7.61408 129.264 7.81191L129.374 7.86123V5.30619L129.322 5.28706C128.913 5.13828 128.356 5.06335 127.667 5.06335C126.797 5.06335 126.008 5.25471 125.319 5.63366C124.629 6.01314 124.087 6.55487 123.707 7.24403C123.329 7.93211 123.137 8.72692 123.137 9.60636V11.3566H121.062V13.7828H123.137V24.0038H126.116V13.7826H130.535V20.278C130.535 22.9532 131.783 24.3091 134.244 24.3091C134.649 24.3091 135.075 24.2609 135.509 24.1671C135.952 24.0709 136.253 23.9747 136.431 23.8717L136.47 23.8485V21.3997L136.349 21.4805C136.187 21.59 135.986 21.6786 135.749 21.7447C135.512 21.8121 135.314 21.846 135.161 21.846C134.584 21.846 134.158 21.6889 133.893 21.3789C133.625 21.0663 133.489 20.5192 133.489 19.7537V13.7826H136.47V13.7826ZM114.408 21.8466C113.327 21.8466 112.475 21.4838 111.874 20.7698C111.269 20.0521 110.963 19.029 110.963 17.7291C110.963 16.3883 111.269 15.3385 111.874 14.6081C112.475 13.8825 113.32 13.5144 114.384 13.5144C115.417 13.5144 116.24 13.8661 116.828 14.5601C117.421 15.2582 117.721 16.2993 117.721 17.6561C117.721 19.0293 117.438 20.0844 116.881 20.79C116.328 21.4905 115.496 21.8466 114.408 21.8466V21.8466ZM114.541 11.0518C112.478 11.0518 110.839 11.6628 109.671 12.8681C108.504 14.0736 107.912 15.7414 107.912 17.8264C107.912 19.8066 108.49 21.3994 109.63 22.5597C110.769 23.7208 112.32 24.3089 114.239 24.3089C116.239 24.3089 117.845 23.689 119.013 22.4673C120.181 21.2463 120.772 19.5942 120.772 17.558C120.772 15.5468 120.217 13.9421 119.122 12.7894C118.026 11.6364 116.485 11.0518 114.541 11.0518V11.0518ZM103.108 11.0518C101.705 11.0518 100.544 11.4146 99.6573 12.1299C98.7652 12.8495 98.3128 13.7936 98.3128 14.9358C98.3128 15.5296 98.4107 16.057 98.6029 16.5044C98.7962 16.9532 99.0956 17.3483 99.4931 17.6801C99.8877 18.0089 100.497 18.3536 101.304 18.7042C101.982 18.9864 102.488 19.2252 102.81 19.4133C103.124 19.5977 103.347 19.7831 103.473 19.9637C103.595 20.1402 103.658 20.382 103.658 20.6806C103.658 21.5304 103.028 21.9436 101.733 21.9436C101.253 21.9436 100.705 21.8425 100.104 21.6425C99.5084 21.4455 98.9459 21.1571 98.4365 20.7873L98.3128 20.6979V23.5973L98.3581 23.6189C98.7799 23.8157 99.3113 23.9811 99.9375 24.1119C100.563 24.2426 101.131 24.3091 101.624 24.3091C103.147 24.3091 104.374 23.9445 105.268 23.2246C106.169 22.5001 106.625 21.5339 106.625 20.3518C106.625 19.4993 106.38 18.7684 105.895 18.1787C105.414 17.5938 104.58 17.0569 103.415 16.5823C102.488 16.2061 101.893 15.8937 101.648 15.6538C101.412 15.422 101.292 15.0946 101.292 14.6798C101.292 14.3119 101.44 14.0173 101.744 13.7785C102.051 13.5386 102.477 13.4165 103.012 13.4165C103.508 13.4165 104.016 13.4958 104.521 13.651C105.026 13.8065 105.469 14.0146 105.839 14.269L105.961 14.3531V11.6027L105.914 11.5822C105.573 11.4342 105.123 11.3078 104.576 11.2049C104.032 11.1033 103.538 11.0518 103.108 11.0518V11.0518ZM90.546 21.8463C89.4652 21.8463 88.6123 21.4838 88.0116 20.7698C87.4069 20.0521 87.1011 19.0293 87.1011 17.7291C87.1011 16.3883 87.4072 15.3385 88.0122 14.6081C88.6128 13.8825 89.4572 13.5144 90.5223 13.5144C91.5548 13.5144 92.3771 13.8661 92.9663 14.5601C93.5581 15.2582 93.8586 16.2993 93.8586 17.6561C93.8586 19.0293 93.576 20.0844 93.0188 20.79C92.4658 21.4905 91.6343 21.8466 90.546 21.8466V21.8463ZM90.6793 11.0518C88.6158 11.0518 86.9769 11.6628 85.8092 12.8681C84.6417 14.0736 84.0496 15.7414 84.0496 17.8264C84.0496 19.8074 84.6276 21.3994 85.7673 22.5597C86.9071 23.7208 88.4582 24.3089 90.3772 24.3089C92.3768 24.3089 93.9831 23.689 95.1508 22.4673C96.3183 21.2463 96.9105 19.5942 96.9105 17.558C96.9105 15.5468 96.3548 13.9421 95.2594 12.7894C94.1631 11.6364 92.6221 11.0518 90.679 11.0518H90.6793ZM79.5271 13.5467V11.3563H76.584V24.0038H79.5268V17.5343C79.5268 16.4341 79.7737 15.5304 80.2605 14.8477C80.7412 14.1731 81.3816 13.8316 82.1638 13.8316C82.4288 13.8316 82.7264 13.8755 83.0487 13.9631C83.3676 14.0499 83.5987 14.1442 83.735 14.2434L83.8584 14.334V11.3348L83.8109 11.314C83.5366 11.1963 83.1492 11.137 82.6584 11.137C81.9191 11.137 81.2571 11.3771 80.6903 11.8501C80.1928 12.2657 79.8331 12.8357 79.558 13.5467H79.5268H79.5271ZM71.314 11.0518C69.9638 11.0518 68.7596 11.3445 67.735 11.9213C66.7086 12.4994 65.9149 13.3252 65.375 14.375C64.8372 15.4223 64.5645 16.6454 64.5645 18.0097C64.5645 19.2045 64.829 20.3011 65.3521 21.2676C65.8754 22.2357 66.6166 22.9931 67.5542 23.5181C68.4908 24.0429 69.573 24.3091 70.7714 24.3091C72.17 24.3091 73.3642 24.0262 74.3216 23.4691L74.3602 23.4464V20.7208L74.2365 20.8121C73.7961 21.1349 73.311 21.3903 72.7968 21.57C72.2767 21.7533 71.8024 21.8463 71.3865 21.8463C70.2321 21.8463 69.3051 21.4808 68.6319 20.7609C67.9574 20.0397 67.6156 19.0274 67.6156 17.7531C67.6156 16.471 67.9723 15.4325 68.6751 14.666C69.3754 13.9022 70.304 13.5147 71.4353 13.5147C72.4025 13.5147 73.345 13.8456 74.2368 14.4997L74.3602 14.5903V11.7186L74.3202 11.6957C73.9848 11.5059 73.5271 11.3491 72.9587 11.2302C72.3932 11.1116 71.8397 11.0518 71.3137 11.0518H71.314ZM62.5372 11.3563H59.5944V24.0038H62.5375V11.3566L62.5372 11.3563ZM61.0959 5.96867C60.6118 5.96867 60.1895 6.13523 59.8421 6.46566C59.4936 6.79717 59.3169 7.21411 59.3169 7.70626C59.3169 8.19058 59.4915 8.59998 59.8367 8.92232C60.1796 9.24386 60.6032 9.40692 61.0959 9.40692C61.5886 9.40692 62.0139 9.24386 62.361 8.92286C62.7102 8.59998 62.8875 8.19058 62.8875 7.70626C62.8875 7.23109 62.715 6.81819 62.3754 6.47887C62.036 6.14035 61.6057 5.96867 61.0959 5.96867V5.96867ZM53.7535 10.4233V24.0038H56.7566V6.35597H52.6002L47.3166 19.464L42.1892 6.35597H37.8632V24.0038H40.6855V10.4219H40.7825L46.1968 24.0035H48.3267L53.6562 10.4233H53.7533H53.7535Z" fill="white" fill-opacity="0.2"/>
<path d="M13.8442 14.4539H0V0.458618H13.8442V14.4539Z" fill="white" fill-opacity="0.2"/>
<path d="M29.1296 14.4539H15.2857V0.458618H29.1296V14.4539Z" fill="white" fill-opacity="0.2"/>
<path d="M13.8436 29.9117H0V15.9166H13.8436V29.9117Z" fill="white" fill-opacity="0.2"/>
<path d="M29.1296 29.9117H15.2857V15.9166H29.1296V29.9117Z" fill="white" fill-opacity="0.2"/>
</g>
<defs>
<clipPath id="clip0_41776_4">
<rect width="136.503" height="29.6471" fill="white" transform="translate(0 0.458618)"/>
</clipPath>
</defs>
</svg>
