<svg width="112" height="37" viewBox="0 0 112 37" fill="none" xmlns="http://www.w3.org/2000/svg">
<g clip-path="url(#clip0_41776_16)">
<path d="M107.764 22.9303L110.845 24.9593C109.845 26.4143 107.454 28.9108 103.319 28.9108C98.1855 28.9108 94.3621 24.9861 94.3621 19.9935C94.3621 14.6807 98.226 11.0764 102.887 11.0764C107.575 11.0764 109.872 14.7606 110.615 16.7496L111.021 17.7643L98.9421 22.7033C99.8608 24.4922 101.293 25.3999 103.319 25.3999C105.346 25.3999 106.751 24.4121 107.764 22.9303V22.9303ZM98.2937 19.7134L106.359 16.4027C105.913 15.2948 104.59 14.5073 103.009 14.5073C100.996 14.5073 98.1991 16.2694 98.2937 19.7134Z" fill="white" fill-opacity="0.2"/>
<path d="M88.5388 1.98581H92.4296V28.0965H88.5388V1.9856V1.98581Z" fill="white" fill-opacity="0.2"/>
<path d="M82.4051 11.7705H86.1609V27.6292C86.1609 34.2101 82.2294 36.92 77.5817 36.92C73.2044 36.92 70.57 34.01 69.5837 31.6472L73.0288 30.2321C73.6501 31.6871 75.1498 33.4093 77.5817 33.4093C80.5674 33.4093 82.4051 31.5804 82.4051 28.1632V26.8817H82.2699C81.3781 27.9495 79.6759 28.9106 77.5142 28.9106C73.0017 28.9106 68.8673 25.026 68.8673 20.0203C68.8673 14.9876 73.0017 11.0632 77.5142 11.0632C79.6624 11.0632 81.3781 12.011 82.2699 13.0522H82.4051V11.7707V11.7705ZM82.6751 20.0203C82.6751 16.8699 80.554 14.5738 77.8519 14.5738C75.1227 14.5738 72.826 16.8699 72.826 20.0203C72.826 23.1305 75.1227 25.3865 77.8519 25.3865C80.5542 25.4 82.6753 23.1305 82.6753 20.0203H82.6751Z" fill="white" fill-opacity="0.2"/>
<path d="M47.5073 19.9536C47.5073 25.093 43.4543 28.8706 38.4824 28.8706C33.5107 28.8706 29.4574 25.0797 29.4574 19.9536C29.4574 14.7876 33.5107 11.0232 38.4824 11.0232C43.4543 11.0232 47.5073 14.7876 47.5073 19.9536ZM43.5623 19.9536C43.5623 16.75 41.2114 14.5471 38.4824 14.5471C35.7534 14.5471 33.4025 16.75 33.4025 19.9536C33.4025 23.1306 35.7534 25.36 38.4824 25.36C41.2116 25.36 43.5623 23.1306 43.5623 19.9536Z" fill="white" fill-opacity="0.2"/>
<path d="M67.2193 19.9935C67.2193 25.1329 63.1661 28.9106 58.1944 28.9106C53.2225 28.9106 49.1694 25.1327 49.1694 19.9935C49.1694 14.8275 53.2225 11.0764 58.1944 11.0764C63.1661 11.0764 67.2193 14.8142 67.2193 19.9935V19.9935ZM63.2607 19.9935C63.2607 16.7899 60.9099 14.5871 58.1807 14.5871C55.4518 14.5871 53.1008 16.7899 53.1008 19.9935C53.1008 23.1705 55.4518 25.3999 58.1807 25.3999C60.9234 25.3999 63.2607 23.1572 63.2607 19.9935Z" fill="white" fill-opacity="0.2"/>
<path d="M14.623 24.9996C8.96202 24.9996 4.53077 20.4876 4.53077 14.8943C4.53077 9.3012 8.96202 4.7892 14.623 4.7892C17.6764 4.7892 19.9055 5.9772 21.5537 7.49906L24.2695 4.81599C21.9728 2.64013 18.9059 0.984558 14.623 0.984558C6.86806 0.984772 0.342422 7.23227 0.342422 14.8943C0.342422 22.5567 6.86806 28.804 14.623 28.804C18.8113 28.804 21.9728 27.4424 24.4452 24.9061C26.985 22.3964 27.7686 18.8723 27.7686 16.0156C27.7686 15.1212 27.6606 14.2002 27.5389 13.5194H14.623V17.2304H23.8236C23.5534 19.5533 22.8103 21.1418 21.716 22.2228C20.3919 23.5446 18.298 24.9996 14.623 24.9996V24.9996Z" fill="white" fill-opacity="0.2"/>
</g>
<defs>
<clipPath id="clip0_41776_16">
<rect width="111.042" height="36" fill="white" transform="translate(0.181305 0.929199)"/>
</clipPath>
</defs>
</svg>
