<svg width="117" height="26" viewBox="0 0 117 26" fill="none" xmlns="http://www.w3.org/2000/svg">
<g clip-path="url(#clip0_41796_16)">
<path d="M116.331 11.5245V9.45768H113.797V6.2448L113.712 6.27143L111.332 7.00887L111.285 7.02334V9.45791H107.528V8.10195C107.528 7.47058 107.668 6.98706 107.943 6.66472C108.215 6.34628 108.606 6.18442 109.103 6.18442C109.461 6.18442 109.832 6.26983 110.205 6.43834L110.298 6.48036V4.30385L110.254 4.28754C109.906 4.16081 109.433 4.09698 108.847 4.09698C108.108 4.09698 107.436 4.25999 106.851 4.5828C106.264 4.90606 105.803 5.36754 105.481 5.9546C105.159 6.54074 104.996 7.2178 104.996 7.96695V9.45791H103.231V11.5247H104.996V20.2314H107.528V11.5245H111.285V17.0576C111.285 19.3365 112.346 20.4915 114.439 20.4915C114.783 20.4915 115.145 20.4505 115.514 20.3706C115.891 20.2886 116.147 20.2066 116.297 20.1189L116.331 20.0992V18.0131L116.228 18.082C116.09 18.1752 115.919 18.2507 115.718 18.307C115.517 18.3644 115.348 18.3933 115.218 18.3933C114.728 18.3933 114.365 18.2595 114.14 17.9954C113.912 17.7291 113.797 17.2631 113.797 16.611V11.5245H116.331V11.5245ZM97.5748 18.3938C96.6554 18.3938 95.9308 18.0848 95.4199 17.4766C94.906 16.8652 94.6456 15.9937 94.6456 14.8863C94.6456 13.7441 94.906 12.8499 95.4201 12.2277C95.9312 11.6096 96.6491 11.296 97.5542 11.296C98.4325 11.296 99.1317 11.5956 99.6322 12.1868C100.136 12.7815 100.391 13.6684 100.391 14.8241C100.391 15.9939 100.151 16.8927 99.6771 17.4938C99.2068 18.0905 98.4996 18.3938 97.5748 18.3938V18.3938ZM97.6877 9.19825C95.9337 9.19825 94.5404 9.71873 93.5474 10.7455C92.5546 11.7724 92.0514 13.1931 92.0514 14.9692C92.0514 16.656 92.5426 18.0129 93.5118 19.0013C94.4808 19.9904 95.7995 20.4913 97.4308 20.4913C99.1313 20.4913 100.497 19.9633 101.49 18.9225C102.482 17.8825 102.985 16.4751 102.985 14.7405C102.985 13.0273 102.513 11.6604 101.582 10.6784C100.65 9.69623 99.3398 9.19825 97.6877 9.19825V9.19825ZM87.9676 9.19825C86.7744 9.19825 85.7878 9.50727 85.0337 10.1166C84.2752 10.7296 83.8906 11.5339 83.8906 12.5069C83.8906 13.0127 83.9738 13.462 84.1372 13.8431C84.3015 14.2253 84.5561 14.5619 84.894 14.8446C85.2295 15.1247 85.7472 15.4183 86.4335 15.717C87.0104 15.9574 87.4406 16.1608 87.714 16.321C87.981 16.4781 88.1707 16.636 88.2779 16.7899C88.3817 16.9403 88.4348 17.1462 88.4348 17.4006C88.4348 18.1245 87.8996 18.4764 86.7982 18.4764C86.39 18.4764 85.924 18.3903 85.4138 18.22C84.9071 18.0521 84.4288 17.8064 83.9958 17.4915L83.8906 17.4153V19.8852L83.9291 19.9036C84.2877 20.0712 84.7394 20.2121 85.2719 20.3235C85.8036 20.4348 86.2864 20.4915 86.706 20.4915C88.0007 20.4915 89.0433 20.1809 89.804 19.5677C90.5695 18.9505 90.9578 18.1275 90.9578 17.1205C90.9578 16.3943 90.7488 15.7716 90.3369 15.2693C89.928 14.7711 89.2186 14.3137 88.2285 13.9094C87.4399 13.5889 86.9347 13.3228 86.7264 13.1185C86.5256 12.921 86.4236 12.6421 86.4236 12.2888C86.4236 11.9754 86.5494 11.7244 86.808 11.521C87.0686 11.3167 87.4311 11.2127 87.8858 11.2127C88.3078 11.2127 88.7396 11.2802 89.1689 11.4124C89.5982 11.5449 89.9749 11.7221 90.2895 11.9389L90.3931 12.0105V9.66753L90.3532 9.65008C90.0631 9.52403 89.6803 9.41636 89.2154 9.32865C88.7525 9.2421 88.3328 9.19825 87.9676 9.19825V9.19825ZM77.2874 18.3936C76.3685 18.3936 75.6434 18.0848 75.1327 17.4766C74.6186 16.8652 74.3587 15.9939 74.3587 14.8863C74.3587 13.7441 74.6189 12.8499 75.1332 12.2277C75.6438 11.6096 76.3617 11.296 77.2672 11.296C78.1451 11.296 78.8441 11.5956 79.3451 12.1868C79.8482 12.7815 80.1037 13.6684 80.1037 14.8241C80.1037 15.9939 79.8634 16.8927 79.3897 17.4938C78.9196 18.0905 78.2126 18.3938 77.2874 18.3938V18.3936ZM77.4007 9.19825C75.6463 9.19825 74.253 9.71873 73.2602 10.7455C72.2677 11.7724 71.7643 13.1931 71.7643 14.9692C71.7643 16.6567 72.2557 18.0129 73.2247 19.0013C74.1936 19.9904 75.5124 20.4913 77.1439 20.4913C78.8439 20.4913 80.2096 19.9633 81.2023 18.9225C82.1949 17.8825 82.6983 16.4751 82.6983 14.7405C82.6983 13.0273 82.226 11.6604 81.2946 10.6784C80.3625 9.69623 79.0524 9.19825 77.4005 9.19825H77.4007ZM67.9193 11.3236V9.45768H65.4172V20.2314H67.9191V14.7203C67.9191 13.7832 68.129 13.0133 68.5429 12.4318C68.9516 11.8571 69.496 11.5662 70.1611 11.5662C70.3864 11.5662 70.6393 11.6037 70.9134 11.6783C71.1844 11.7522 71.381 11.8326 71.4968 11.917L71.6017 11.9942V9.43931L71.5614 9.42164C71.3281 9.32131 70.9988 9.2708 70.5815 9.2708C69.953 9.2708 69.3902 9.47536 68.9083 9.87829C68.4853 10.2323 68.1796 10.7179 67.9456 11.3236H67.9191H67.9193ZM60.9367 9.19825C59.7889 9.19825 58.765 9.44758 57.894 9.9389C57.0213 10.4314 56.3465 11.1348 55.8875 12.0291C55.4304 12.9213 55.1985 13.9632 55.1985 15.1253C55.1985 16.1431 55.4233 17.0773 55.868 17.9006C56.313 18.7253 56.9431 19.3705 57.7403 19.8177C58.5366 20.2647 59.4566 20.4915 60.4754 20.4915C61.6645 20.4915 62.6798 20.2505 63.4937 19.7759L63.5266 19.7566V17.4348L63.4214 17.5126C63.047 17.7876 62.6345 18.0051 62.1974 18.1582C61.7552 18.3143 61.352 18.3936 60.9984 18.3936C60.0169 18.3936 59.2288 18.0822 58.6565 17.469C58.083 16.8546 57.7924 15.9923 57.7924 14.9068C57.7924 13.8146 58.0957 12.93 58.6932 12.277C59.2886 11.6264 60.0781 11.2962 61.0398 11.2962C61.8622 11.2962 62.6634 11.5782 63.4216 12.1354L63.5266 12.2125V9.76625L63.4926 9.74674C63.2074 9.5851 62.8183 9.45148 62.335 9.35023C61.8542 9.24921 61.3837 9.19825 60.9365 9.19825H60.9367ZM53.4749 9.45768H50.973V20.2314H53.4751V9.45791L53.4749 9.45768ZM52.2496 4.86818C51.8379 4.86818 51.4789 5.01006 51.1836 5.29154C50.8873 5.57394 50.737 5.92911 50.737 6.34834C50.737 6.76092 50.8855 7.10967 51.179 7.38425C51.4705 7.65816 51.8307 7.79706 52.2496 7.79706C52.6684 7.79706 53.03 7.65816 53.3251 7.38471C53.622 7.10967 53.7728 6.76092 53.7728 6.34834C53.7728 5.94358 53.6261 5.59185 53.3373 5.30279C53.0488 5.01443 52.6829 4.86818 52.2496 4.86818V4.86818ZM46.0072 8.66284V20.2314H48.5604V5.1981H45.0267L40.5346 16.3642L36.1754 5.1981H32.4976V20.2314H34.897V8.66169H34.9795L39.5826 20.2312H41.3935L45.9245 8.66284H46.007H46.0072Z" fill="white" fill-opacity="0.2"/>
<path d="M12.0771 12.0964H0.307129V0.174438H12.0771V12.0964Z" fill="white" fill-opacity="0.2"/>
<path d="M25.0725 12.0964H13.3027V0.174438H25.0725V12.0964Z" fill="white" fill-opacity="0.2"/>
<path d="M12.0767 25.264H0.307129V13.3423H12.0767V25.264Z" fill="white" fill-opacity="0.2"/>
<path d="M25.0725 25.264H13.3027V13.3423H25.0725V25.264Z" fill="white" fill-opacity="0.2"/>
</g>
<defs>
<clipPath id="clip0_41796_16">
<rect width="116.052" height="25.2549" fill="white" transform="translate(0.307129 0.174438)"/>
</clipPath>
</defs>
</svg>
