<svg width="139" height="36" viewBox="0 0 139 36" fill="none" xmlns="http://www.w3.org/2000/svg">
<g clip-path="url(#clip0_41776_10)">
<path d="M44.7421 27.7429L46.4537 23.7959C48.3034 25.1664 50.7603 25.8792 53.1899 25.8792C54.9844 25.8792 56.1163 25.1938 56.1163 24.1524C56.0887 21.247 45.3769 23.5218 45.2941 16.2309C45.2665 12.5308 48.5797 9.68017 53.2727 9.68017C56.0611 9.68017 58.8496 10.3653 60.8372 11.9276L59.236 15.9569C57.4139 14.8056 55.1502 13.9835 52.9967 13.9835C51.5335 13.9835 50.5674 14.6686 50.5674 15.5458C50.595 18.3964 61.3896 16.8341 61.5 23.7959C61.5 27.5785 58.2699 30.2373 53.6318 30.2373C50.2358 30.2373 47.1162 29.4423 44.7421 27.7429V27.7429ZM110.421 22.3706L115.142 24.9746C113.375 28.1266 110.007 30.2373 106.114 30.2373C100.399 30.2373 95.7611 25.6325 95.7611 19.9587C95.7611 14.2849 100.399 9.68017 106.114 9.68017C109.979 9.68017 113.375 11.818 115.142 14.9429L110.421 17.5466C109.565 16.0665 107.964 15.0525 106.114 15.0525C103.381 15.0525 101.172 17.2451 101.172 19.9587C101.172 22.6723 103.381 24.8649 106.114 24.8649C107.964 24.8649 109.565 23.8507 110.421 22.3706H110.421ZM63.8741 1.15576H69.7822V29.8534H63.8741V1.15576V1.15576ZM117.461 1.15576H123.369V18.0125L130.05 10.0912H137.283L129.028 19.6296L137.946 29.8534H130.381L123.369 21.247V29.8534H117.461V1.15576ZM87.3409 22.4257V17.574C86.4849 16.1487 84.718 15.0525 82.7304 15.0525C79.9969 15.0525 77.7886 17.2451 77.7886 19.9587C77.7886 22.6723 79.9969 24.8649 82.7304 24.8649C84.718 24.8649 86.4849 23.8233 87.3409 22.4254V22.4257ZM87.3409 10.0915H93.249V29.8262H87.3409V27.4966C86.3745 29.1137 83.9725 30.2376 81.4604 30.2376C76.2699 30.2376 72.1842 25.6328 72.1842 19.9316C72.1842 14.2304 76.2699 9.68043 81.4604 9.68043C83.9725 9.68043 86.3745 10.8043 87.3409 12.4214V10.091V10.0915Z" fill="white" fill-opacity="0.2"/>
<path d="M8.21701 22.398C8.21701 24.3988 6.58817 26.0162 4.57262 26.0162C4.09391 26.0166 3.61982 25.9233 3.17747 25.7417C2.73512 25.56 2.3332 25.2935 1.99472 24.9574C1.65624 24.6213 1.38784 24.2223 1.20488 23.7831C1.02192 23.3439 0.928006 22.8732 0.928499 22.398C0.928499 20.3972 2.55734 18.78 4.57262 18.78H8.21701V22.398ZM10.0391 22.398C10.0391 20.3972 11.6679 18.78 13.6832 18.78C15.6985 18.78 17.3276 20.3972 17.3276 22.398V31.4431C17.3276 33.4439 15.6987 35.0613 13.6832 35.0613C13.2045 35.0617 12.7304 34.9684 12.2881 34.7867C11.8458 34.605 11.4439 34.3385 11.1055 34.0024C10.767 33.6663 10.4986 33.2673 10.3157 32.8281C10.1328 32.389 10.0388 31.9183 10.0393 31.4431V22.398H10.0391Z" fill="white" fill-opacity="0.2"/>
<path d="M13.6831 7.8712C13.2045 7.87162 12.7304 7.77831 12.2881 7.59662C11.8458 7.41493 11.4439 7.14843 11.1054 6.81236C10.767 6.47628 10.4986 6.07725 10.3156 5.63808C10.1327 5.19891 10.0388 4.72824 10.0393 4.253C10.039 2.2522 11.6679 0.635071 13.6831 0.635071C15.6984 0.635071 17.3275 2.2522 17.3275 4.253V7.8712H13.6831V7.8712ZM13.6831 9.70757C15.6984 9.70757 17.3275 11.3247 17.3275 13.3255C17.3275 15.3263 15.6987 16.9437 13.6831 16.9437H4.54497C4.06627 16.9441 3.59217 16.8509 3.14982 16.6692C2.70747 16.4875 2.30555 16.221 1.96707 15.8849C1.62859 15.5489 1.36019 15.1498 1.17723 14.7106C0.994276 14.2715 0.900357 13.8008 0.90085 13.3255C0.90085 11.3247 2.52969 9.70783 4.54497 9.70783H13.6834L13.6831 9.70757Z" fill="white" fill-opacity="0.2"/>
<path d="M28.2877 13.3255C28.2877 11.3247 29.9166 9.70757 31.9318 9.70757C33.9471 9.70757 35.5762 11.3247 35.5762 13.3255C35.5762 15.3263 33.9474 16.9437 31.9318 16.9437H28.2877V13.3255V13.3255ZM26.4654 13.3255C26.4654 15.3263 24.8368 16.9437 22.8213 16.9437C22.3426 16.9441 21.8685 16.8509 21.4261 16.6692C20.9838 16.4875 20.5819 16.221 20.2434 15.8849C19.9049 15.5489 19.6365 15.1498 19.4535 14.7106C19.2706 14.2715 19.1767 13.8008 19.1772 13.3255V4.253C19.1772 2.2522 20.806 0.635071 22.8213 0.635071C24.8366 0.635071 26.4657 2.2522 26.4657 4.253V13.3258L26.4654 13.3255Z" fill="white" fill-opacity="0.2"/>
<path d="M22.8213 27.8251C24.8366 27.8251 26.4657 29.4423 26.4657 31.4431C26.4657 33.4438 24.8368 35.0613 22.8213 35.0613C22.3426 35.0617 21.8685 34.9684 21.4261 34.7868C20.9838 34.6051 20.5819 34.3386 20.2434 34.0025C19.9049 33.6664 19.6365 33.2674 19.4535 32.8282C19.2706 32.389 19.1767 31.9183 19.1772 31.4431V27.8251H22.8213V27.8251ZM22.8213 26.0159C22.3426 26.0163 21.8685 25.9231 21.4262 25.7414C20.9839 25.5598 20.582 25.2933 20.2435 24.9572C19.905 24.6212 19.6366 24.2222 19.4536 23.783C19.2706 23.3439 19.1767 22.8732 19.1772 22.398C19.1772 20.3972 20.806 18.78 22.8213 18.78H31.9597C33.975 18.78 35.6038 20.3972 35.6038 22.398C35.6038 24.3988 33.975 26.0162 31.9594 26.0162H22.8213V26.0159Z" fill="white" fill-opacity="0.2"/>
</g>
<defs>
<clipPath id="clip0_41776_10">
<rect width="137.211" height="34.5882" fill="white" transform="translate(0.900848 0.635071)"/>
</clipPath>
</defs>
</svg>
