<svg width="118" height="28" viewBox="0 0 118 28" fill="none" xmlns="http://www.w3.org/2000/svg">
<g clip-path="url(#clip0_41796_35)">
<path d="M68.0946 10.9133H63.5025V11.3968C64.9388 11.3968 65.1698 11.7023 65.1698 13.5102V16.7695C65.1698 18.5772 64.939 18.9082 63.5025 18.9082C62.3998 18.7556 61.6554 18.1697 60.6294 17.0494L59.4492 15.7765C61.0396 15.4961 61.8862 14.5034 61.8862 13.3829C61.8862 11.9829 60.6809 10.9135 58.423 10.9135H53.9082V11.3968C55.3445 11.3968 55.5755 11.7023 55.5755 13.5102V16.7695C55.5755 18.5772 55.3445 18.9082 53.9082 18.9082V19.3919H59.0129V18.908C57.5766 18.908 57.3458 18.5772 57.3458 16.7695V15.853H57.7817L60.6292 19.3919H68.0946C71.7628 19.3919 73.3533 17.4571 73.3533 15.1397C73.3533 12.8228 71.763 10.9133 68.0946 10.9133ZM57.3461 15.0633V11.6772H58.3975C59.5518 11.6772 60.0651 12.4664 60.0651 13.3831C60.0651 14.2743 59.5518 15.0633 58.3975 15.0633H57.3461V15.0633ZM68.1716 18.6027H67.9918C67.0686 18.6027 66.9404 18.3737 66.9404 17.2023V11.6772H68.1716C70.8396 11.6772 71.3267 13.612 71.3267 15.1144C71.3267 16.6675 70.8391 18.6027 68.1716 18.6027ZM39.6199 16.0058L41.39 10.8113C41.9033 9.30913 41.6723 8.87654 40.0305 8.87654V8.36707H44.8532V8.87654C43.2371 8.87654 42.8525 9.25825 42.2112 11.1171L39.2864 19.8248H38.9531L36.3361 11.8549L33.6681 19.8248H33.3345L30.4875 11.1171C29.8718 9.25825 29.4613 8.87654 27.9733 8.87654V8.36707H33.6683V8.87654C32.1548 8.87654 31.744 9.23293 32.2831 10.8113L34.0017 16.0056L36.5926 8.36707H37.0802L39.6199 16.0058V16.0058ZM48.3416 19.7228C45.5198 19.7228 43.2111 17.6604 43.2111 15.1395C43.2111 12.6446 45.5201 10.5818 48.3416 10.5818C51.1636 10.5818 53.4721 12.6446 53.4721 15.1395C53.4721 17.6604 51.1636 19.7228 48.3416 19.7228ZM48.3416 11.3717C45.9817 11.3717 45.1608 13.4847 45.1608 15.1397C45.1608 16.8206 45.9817 18.9082 48.3416 18.9082C50.7276 18.9082 51.5485 16.8206 51.5485 15.1397C51.5485 13.4847 50.7276 11.3717 48.3416 11.3717V11.3717Z" fill="white" fill-opacity="0.2"/>
<path d="M79.6892 18.8827V19.392H73.8146V18.8827C75.5337 18.8827 75.8415 18.4499 75.8415 15.9034V11.8301C75.8415 9.2834 75.5337 8.87636 73.8146 8.87636V8.36688H79.1249C81.7669 8.36688 83.2296 9.71644 83.2296 11.5244C83.2296 13.2814 81.7669 14.6561 79.1249 14.6561H77.6626V15.9032C77.6626 18.4499 77.9702 18.8827 79.6892 18.8827ZM79.1249 9.2834H77.6626V13.714H79.1249C80.5616 13.714 81.2285 12.7211 81.2285 11.5244C81.2285 10.3024 80.5616 9.2834 79.1249 9.2834ZM100.853 16.9986L100.725 17.457C100.494 18.297 100.211 18.6028 98.39 18.6028H98.0307C96.6972 18.6028 96.4662 18.297 96.4662 16.4896V15.3182C98.4673 15.3182 98.6213 15.4964 98.6213 16.8206H99.1086V13.0263H98.6211C98.6211 14.3504 98.4673 14.5285 96.4662 14.5285V11.677H97.8767C99.6985 11.677 99.9804 11.9827 100.211 12.8228L100.34 13.3063H100.75L100.571 10.9131H93.0285V11.3966C94.4648 11.3966 94.6961 11.7021 94.6961 13.51V16.7693C94.6961 18.423 94.4999 18.8395 93.3673 18.899C92.2908 18.7357 91.5519 18.153 90.5405 17.0492L89.3603 15.7763C90.9511 15.4959 91.7977 14.5032 91.7977 13.3827C91.7977 11.9827 90.592 10.9134 88.3346 10.9134H83.8197V11.3966C85.256 11.3966 85.4871 11.7021 85.4871 13.51V16.7693C85.4871 18.577 85.2563 18.9081 83.8197 18.9081V19.3918H88.9247V18.9078C87.4884 18.9078 87.2574 18.577 87.2574 16.7693V15.853H87.6935L90.5408 19.392H101.084L101.238 16.9988H100.853V16.9986ZM87.2571 15.0633V11.6772H88.3086C89.4631 11.6772 89.9764 12.4664 89.9764 13.3832C89.9764 14.2744 89.4631 15.0633 88.3086 15.0633H87.2571ZM106.06 19.7228C105.034 19.7228 104.136 19.1882 103.752 18.8569C103.623 18.9845 103.392 19.3664 103.341 19.7228H102.854V16.2094H103.367C103.572 17.8896 104.752 18.8827 106.266 18.8827C107.087 18.8827 107.754 18.4246 107.754 17.6607C107.754 16.9988 107.164 16.4893 106.112 16.0059L104.65 15.3184C103.623 14.8343 102.854 13.994 102.854 12.8739C102.854 11.6519 104.008 10.6081 105.599 10.6081C106.446 10.6081 107.163 10.9136 107.6 11.27C107.728 11.1682 107.856 10.8878 107.933 10.5821H108.421V13.5872H107.882C107.702 12.3902 107.035 11.3973 105.676 11.3973C104.958 11.3973 104.29 11.8048 104.29 12.4416C104.29 13.1035 104.829 13.4596 106.061 14.02L107.471 14.7074C108.703 15.2929 109.19 16.2354 109.19 16.999C109.19 18.603 107.779 19.723 106.06 19.723V19.7228ZM113.961 19.7228C112.935 19.7228 112.037 19.1882 111.653 18.8569C111.524 18.9845 111.294 19.3664 111.243 19.7228H110.755V16.2094H111.268C111.473 17.8896 112.653 18.8827 114.167 18.8827C114.988 18.8827 115.655 18.4246 115.655 17.6607C115.655 16.9988 115.065 16.4893 114.013 16.0059L112.55 15.3184C111.524 14.8343 110.755 13.994 110.755 12.8739C110.755 11.6519 111.909 10.6081 113.5 10.6081C114.346 10.6081 115.064 10.9136 115.501 11.27C115.629 11.1682 115.757 10.8878 115.834 10.5821H116.321V13.5872H115.783C115.603 12.3902 114.936 11.3973 113.577 11.3973C112.859 11.3973 112.191 11.8048 112.191 12.4416C112.191 13.1035 112.73 13.4596 113.961 14.02L115.372 14.7074C116.604 15.2929 117.091 16.2354 117.091 16.999C117.091 18.603 115.68 19.723 113.961 19.723V19.7228Z" fill="white" fill-opacity="0.2"/>
<path d="M2.31878 13.7076C2.31878 18.1679 4.9305 22.0221 8.71741 23.8488L3.30168 9.1219C2.65246 10.5648 2.31752 12.1276 2.31878 13.7079V13.7076ZM21.3361 13.1391C21.3361 11.7466 20.8321 10.7822 20.3996 10.0314C19.8241 9.10336 19.2848 8.31732 19.2848 7.38927C19.2848 6.35336 20.0763 5.38913 21.1911 5.38913C21.2415 5.38913 21.2891 5.39546 21.3383 5.39817C19.3185 3.56152 16.6275 2.44036 13.6718 2.44036C9.70555 2.44036 6.2162 4.45995 4.18615 7.5193C4.45272 7.52699 4.70357 7.53264 4.91683 7.53264C6.10433 7.53264 7.94253 7.3895 7.94253 7.3895C8.55451 7.35377 8.62651 8.24586 8.01544 8.31777C8.01544 8.31777 7.40028 8.38968 6.71585 8.42518L10.8502 20.6302L13.3346 13.2348L11.5659 8.42496C10.9546 8.38923 10.3754 8.31732 10.3754 8.31732C9.76342 8.28182 9.83542 7.35332 10.4469 7.38927C10.4469 7.38927 12.3221 7.53219 13.4376 7.53219C14.6246 7.53219 16.4633 7.38927 16.4633 7.38927C17.0755 7.35332 17.1475 8.24541 16.5359 8.31732C16.5359 8.31732 15.9196 8.38923 15.2366 8.42473L19.3393 20.5375L20.4716 16.7815C20.9624 15.2232 21.3361 14.1038 21.3361 13.1391V13.1391ZM13.8709 14.6934L10.4647 24.5172C11.5061 24.8217 12.5861 24.9763 13.6718 24.9763C14.9558 24.9767 16.2306 24.7607 17.4418 24.3375C17.4104 24.2882 17.3834 24.2363 17.3612 24.1823L13.8709 14.6934V14.6934ZM23.6336 8.30172C23.6823 8.66059 23.7101 9.04569 23.7101 9.46042C23.7101 10.6037 23.4948 11.8891 22.8466 13.4962L19.3789 23.4476C22.7541 21.4941 25.0243 17.8649 25.0243 13.7081C25.0245 11.7489 24.5203 9.90681 23.6336 8.30172V8.30172ZM13.6718 0.573181C6.37477 0.573181 0.437744 6.46529 0.437744 13.7076C0.437744 20.9511 6.37477 26.843 13.6718 26.843C20.9688 26.843 26.9065 20.9511 26.9065 13.7076C26.9065 6.46529 20.9688 0.573181 13.6718 0.573181ZM13.6718 26.2408C6.70947 26.2408 1.04448 20.6185 1.04448 13.7076C1.04448 6.79748 6.70924 1.17537 13.6718 1.17537C20.6341 1.17537 26.2986 6.79748 26.2986 13.7076C26.2986 20.6185 20.6341 26.2408 13.6718 26.2408V26.2408Z" fill="white" fill-opacity="0.2"/>
</g>
<defs>
<clipPath id="clip0_41796_35">
<rect width="116.654" height="26.4575" fill="white" transform="translate(0.437744 0.573181)"/>
</clipPath>
</defs>
</svg>
