<svg width="96" height="31" viewBox="0 0 96 31" fill="none" xmlns="http://www.w3.org/2000/svg">
<g clip-path="url(#clip0_41796_28)">
<path d="M92.164 18.9096L94.783 20.638C93.933 21.8775 91.9 24.0041 88.3851 24.0041C84.0203 24.0041 80.7698 20.6608 80.7698 16.4079C80.7698 11.8821 84.0548 8.81183 88.0176 8.81183C92.0033 8.81183 93.9559 11.9502 94.5878 13.6446L94.9324 14.5089L84.6636 18.7162C85.4447 20.2401 86.6624 21.0133 88.3851 21.0133C90.1081 21.0133 91.3026 20.1718 92.164 18.9096V18.9096ZM84.1123 16.1693L90.9696 13.349C90.5905 12.4053 89.465 11.7345 88.1208 11.7345C86.4096 11.7345 84.0319 13.2355 84.1123 16.1693Z" fill="white" fill-opacity="0.2"/>
<path d="M75.819 1.06799H79.1268V23.3105H75.819V1.06781V1.06799Z" fill="white" fill-opacity="0.2"/>
<path d="M70.6041 9.40316H73.7973V22.9124C73.7973 28.5184 70.4548 30.8267 66.5034 30.8267C62.7819 30.8267 60.5422 28.3479 59.7036 26.3352L62.6326 25.1297C63.1609 26.3691 64.4359 27.8362 66.5034 27.8362C69.0418 27.8362 70.6041 26.2782 70.6041 23.3673V22.2757H70.4892C69.7311 23.1853 68.2838 24.004 66.446 24.004C62.6095 24.004 59.0946 20.6949 59.0946 16.4308C59.0946 12.1436 62.6095 8.8006 66.446 8.8006C68.2724 8.8006 69.7311 9.60797 70.4892 10.4949H70.6041V9.40334V9.40316ZM70.8337 16.4308C70.8337 13.7471 69.0304 11.7911 66.7331 11.7911C64.4128 11.7911 62.4602 13.7471 62.4602 16.4308C62.4602 19.0801 64.4128 21.0019 66.7331 21.0019C69.0306 21.0134 70.8339 19.0801 70.8339 16.4308H70.8337Z" fill="white" fill-opacity="0.2"/>
<path d="M40.9349 16.3738C40.9349 20.7519 37.4891 23.9698 33.2621 23.9698C29.0352 23.9698 25.5892 20.7405 25.5892 16.3738C25.5892 11.9732 29.0352 8.76648 33.2621 8.76648C37.4891 8.76648 40.9349 11.9732 40.9349 16.3738ZM37.5809 16.3738C37.5809 13.6449 35.5822 11.7683 33.2621 11.7683C30.9419 11.7683 28.9432 13.6449 28.9432 16.3738C28.9432 19.0802 30.9419 20.9793 33.2621 20.9793C35.5824 20.9793 37.5809 19.0802 37.5809 16.3738Z" fill="white" fill-opacity="0.2"/>
<path d="M57.6935 16.4079C57.6935 20.7859 54.2476 24.0039 50.0207 24.0039C45.7937 24.0039 42.3479 20.7857 42.3479 16.4079C42.3479 12.0072 45.7937 8.81183 50.0207 8.81183C54.2476 8.81183 57.6935 11.9959 57.6935 16.4079V16.4079ZM54.328 16.4079C54.328 13.6789 52.3294 11.8024 50.0091 11.8024C47.689 11.8024 45.6903 13.6789 45.6903 16.4079C45.6903 19.1142 47.689 21.0133 50.0091 21.0133C52.3408 21.0133 54.328 19.1029 54.328 16.4079Z" fill="white" fill-opacity="0.2"/>
<path d="M12.9773 20.6723C8.16451 20.6723 4.39715 16.8287 4.39715 12.064C4.39715 7.29957 8.16451 3.45602 12.9773 3.45602C15.5733 3.45602 17.4684 4.46802 18.8697 5.76442L21.1786 3.47884C19.226 1.62533 16.6186 0.215027 12.9773 0.215027C6.38427 0.215209 0.836304 5.53715 0.836304 12.064C0.836304 18.5913 6.38427 23.9131 12.9773 23.9131C16.5382 23.9131 19.226 22.7532 21.328 20.5927C23.4873 18.4548 24.1535 15.4527 24.1535 13.0193C24.1535 12.2574 24.0616 11.4728 23.9582 10.8929H12.9773V14.0541H20.7995C20.5698 16.0328 19.9381 17.386 19.0076 18.3069C17.882 19.4328 16.1017 20.6723 12.9773 20.6723V20.6723Z" fill="white" fill-opacity="0.2"/>
</g>
<defs>
<clipPath id="clip0_41796_28">
<rect width="94.4052" height="30.6667" fill="white" transform="translate(0.699219 0.167908)"/>
</clipPath>
</defs>
</svg>
