<svg width="138" height="32" viewBox="0 0 138 32" fill="none" xmlns="http://www.w3.org/2000/svg">
<g clip-path="url(#clip0_41776_23)">
<path d="M80.3689 12.8912H74.9676V13.4587C76.657 13.4587 76.9287 13.8174 76.9287 15.9397V19.7658C76.9287 21.8879 76.6573 22.2765 74.9676 22.2765C73.6705 22.0973 72.795 21.4095 71.5882 20.0944L70.2 18.6002C72.0706 18.271 73.0665 17.1056 73.0665 15.7903C73.0665 14.1468 71.6488 12.8914 68.993 12.8914H63.6825V13.4587C65.372 13.4587 65.6437 13.8174 65.6437 15.9397V19.7658C65.6437 21.8879 65.372 22.2765 63.6825 22.2765V22.8443H69.6868V22.2763C67.9974 22.2763 67.726 21.8879 67.726 19.7658V18.6899H68.2386L71.588 22.8443H80.3689C84.6835 22.8443 86.5544 20.5731 86.5544 17.8526C86.5544 15.1327 84.6838 12.8912 80.3689 12.8912ZM67.7262 17.7629V13.7879H68.963C70.3206 13.7879 70.9244 14.7144 70.9244 15.7905C70.9244 16.8367 70.3206 17.7629 68.963 17.7629H67.7262V17.7629ZM80.4595 21.9179H80.248C79.1621 21.9179 79.0113 21.649 79.0113 20.2739V13.7879H80.4595C83.5976 13.7879 84.1706 16.0592 84.1706 17.8229C84.1706 19.6461 83.5971 21.9179 80.4595 21.9179ZM46.8764 18.8693L48.9584 12.7715C49.5622 11.008 49.2904 10.5002 47.3593 10.5002V9.9021H53.0318V10.5002C51.131 10.5002 50.6786 10.9483 49.9242 13.1304L46.4841 23.3524H46.092L43.0139 13.9966L39.8757 23.3524H39.4834L36.1346 13.1304C35.4105 10.9483 34.9275 10.5002 33.1773 10.5002V9.9021H39.876V10.5002C38.0957 10.5002 37.6125 10.9185 38.2466 12.7715L40.268 18.8691L43.3156 9.9021H43.8891L46.8764 18.8693V18.8693ZM57.135 23.2327C53.816 23.2327 51.1004 20.8117 51.1004 17.8524C51.1004 14.9235 53.8162 12.502 57.135 12.502C60.4543 12.502 63.1696 14.9235 63.1696 17.8524C63.1696 20.8117 60.4543 23.2327 57.135 23.2327ZM57.135 13.4293C54.3592 13.4293 53.3936 15.9097 53.3936 17.8526C53.3936 19.8258 54.3592 22.2765 57.135 22.2765C59.9414 22.2765 60.907 19.8258 60.907 17.8526C60.907 15.9097 59.9414 13.4293 57.135 13.4293V13.4293Z" fill="white" fill-opacity="0.2"/>
<path d="M94.0068 22.2465V22.8444H87.097V22.2465C89.119 22.2465 89.481 21.7385 89.481 18.7491V13.9674C89.481 10.9778 89.119 10.4999 87.097 10.4999V9.90186H93.343C96.4506 9.90186 98.1711 11.4861 98.1711 13.6085C98.1711 15.6711 96.4506 17.2848 93.343 17.2848H91.6231V18.7488C91.6231 21.7385 91.9848 22.2465 94.0068 22.2465ZM93.343 10.9778H91.6231V16.1789H93.343C95.033 16.1789 95.8174 15.0133 95.8174 13.6085C95.8174 12.1739 95.033 10.9778 93.343 10.9778ZM118.9 20.0347L118.749 20.5728C118.478 21.559 118.145 21.9179 116.003 21.9179H115.581C114.012 21.9179 113.74 21.559 113.74 19.4372V18.0621C116.094 18.0621 116.275 18.2713 116.275 19.8258H116.848V15.3717H116.275C116.275 16.9259 116.094 17.1351 113.74 17.1351V13.7877H115.399C117.542 13.7877 117.874 14.1466 118.145 15.1327L118.297 15.7003H118.779L118.568 12.8909H109.697V13.4585C111.386 13.4585 111.658 13.8171 111.658 15.9395V19.7656C111.658 21.7069 111.427 22.1958 110.095 22.2657C108.829 22.074 107.96 21.3899 106.77 20.0942L105.382 18.5999C107.253 18.2707 108.249 17.1054 108.249 15.79C108.249 14.1466 106.831 12.8912 104.176 12.8912H98.8652V13.4585C100.555 13.4585 100.826 13.8171 100.826 15.9395V19.7656C100.826 21.8876 100.555 22.2763 98.8652 22.2763V22.8441H104.87V22.276C103.18 22.276 102.909 21.8876 102.909 19.7656V18.6899H103.422L106.771 22.8444H119.172L119.353 20.035H118.9V20.0347ZM102.908 17.7629V13.7879H104.145C105.503 13.7879 106.107 14.7144 106.107 15.7906C106.107 16.8367 105.503 17.7629 104.145 17.7629H102.908ZM125.025 23.2327C123.818 23.2327 122.762 22.6052 122.309 22.2163C122.159 22.366 121.887 22.8144 121.827 23.2327H121.254V19.1083H121.857C122.099 21.0806 123.486 22.2465 125.267 22.2465C126.232 22.2465 127.017 21.7087 127.017 20.812C127.017 20.035 126.323 19.4369 125.086 18.8694L123.366 18.0624C122.159 17.494 121.254 16.5076 121.254 15.1927C121.254 13.7582 122.611 12.5328 124.482 12.5328C125.478 12.5328 126.323 12.8915 126.836 13.3098C126.987 13.1904 127.138 12.8612 127.228 12.5023H127.802V16.03H127.168C126.956 14.6249 126.172 13.4593 124.573 13.4593C123.728 13.4593 122.943 13.9376 122.943 14.6852C122.943 15.4622 123.577 15.8803 125.026 16.5381L126.685 17.3451C128.133 18.0324 128.706 19.1388 128.706 20.0353C128.706 21.9182 127.047 23.233 125.025 23.233V23.2327ZM134.319 23.2327C133.112 23.2327 132.055 22.6052 131.603 22.2163C131.452 22.366 131.181 22.8144 131.121 23.2327H130.547V19.1083H131.15C131.392 21.0806 132.78 22.2465 134.56 22.2465C135.526 22.2465 136.31 21.7087 136.31 20.812C136.31 20.035 135.616 19.4369 134.379 18.8694L132.659 18.0624C131.452 17.494 130.547 16.5076 130.547 15.1927C130.547 13.7582 131.905 12.5328 133.775 12.5328C134.771 12.5328 135.616 12.8915 136.129 13.3098C136.28 13.1904 136.431 12.8612 136.521 12.5023H137.094V16.03H136.461C136.249 14.6249 135.465 13.4593 133.866 13.4593C133.021 13.4593 132.236 13.9376 132.236 14.6852C132.236 15.4622 132.87 15.8803 134.319 16.5381L135.978 17.3451C137.426 18.0324 137.999 19.1388 137.999 20.0353C137.999 21.9182 136.34 23.233 134.319 23.233V23.2327Z" fill="white" fill-opacity="0.2"/>
<path d="M3.00195 16.1715C3.00195 21.4074 6.07391 25.9319 10.5282 28.0763L4.15806 10.7882C3.39443 12.4821 3.00047 14.3166 3.00195 16.1717V16.1715ZM25.3705 15.5041C25.3705 13.8694 24.7777 12.7372 24.2691 11.8559C23.5921 10.7664 22.9578 9.84369 22.9578 8.75424C22.9578 7.53817 23.8888 6.40625 25.2 6.40625C25.2593 6.40625 25.3153 6.41368 25.3732 6.41687C22.9974 4.2608 19.8322 2.94465 16.3556 2.94465C11.6904 2.94465 7.58618 5.31547 5.19839 8.90688C5.51194 8.91591 5.80699 8.92255 6.05783 8.92255C7.45459 8.92255 9.61673 8.75451 9.61673 8.75451C10.3366 8.71257 10.4212 9.75981 9.70249 9.84422C9.70249 9.84422 8.97892 9.92864 8.17388 9.97032L13.0368 24.298L15.959 15.6164L13.8786 9.97005C13.1596 9.92811 12.4783 9.84369 12.4783 9.84369C11.7585 9.80201 11.8432 8.71204 12.5625 8.75424C12.5625 8.75424 14.768 8.92201 16.0801 8.92201C17.4763 8.92201 19.639 8.75424 19.639 8.75424C20.3591 8.71204 20.4438 9.75928 19.7245 9.84369C19.7245 9.84369 18.9996 9.92811 18.1961 9.96979L23.0218 24.1892L24.3537 19.7799C24.931 17.9506 25.3705 16.6366 25.3705 15.5041V15.5041ZM16.5898 17.3286L12.5834 28.861C13.8083 29.2184 15.0786 29.3998 16.3556 29.3999C17.8659 29.4004 19.3654 29.1468 20.79 28.6499C20.753 28.5921 20.7213 28.5312 20.6951 28.4678L16.5898 17.3286V17.3286ZM28.0729 9.82538C28.1302 10.2467 28.1629 10.6987 28.1629 11.1856C28.1629 12.5278 27.9097 14.0366 27.1473 15.9233L23.0685 27.6054C27.0385 25.3121 29.7087 21.0517 29.7087 16.172C29.709 13.872 29.1159 11.7096 28.0729 9.82538V9.82538ZM16.3556 0.752747C7.7727 0.752747 0.789429 7.66957 0.789429 16.1715C0.789429 24.6747 7.7727 31.5912 16.3556 31.5912C24.9385 31.5912 31.9226 24.6747 31.9226 16.1715C31.9226 7.66957 24.9385 0.752747 16.3556 0.752747ZM16.3556 30.8843C8.16637 30.8843 1.50308 24.2842 1.50308 16.1715C1.50308 8.05954 8.1661 1.45967 16.3556 1.45967C24.5448 1.45967 31.2076 8.05954 31.2076 16.1715C31.2076 24.2842 24.5448 30.8843 16.3556 30.8843V30.8843Z" fill="white" fill-opacity="0.2"/>
</g>
<defs>
<clipPath id="clip0_41776_23">
<rect width="137.211" height="31.0588" fill="white" transform="translate(0.789429 0.752747)"/>
</clipPath>
</defs>
</svg>
