<svg width="118" height="31" viewBox="0 0 118 31" fill="none" xmlns="http://www.w3.org/2000/svg">
<g clip-path="url(#clip0_41796_22)">
<path d="M37.7173 23.8611L39.1725 20.4988C40.745 21.6663 42.8339 22.2734 44.8995 22.2734C46.4251 22.2734 47.3875 21.6896 47.3875 20.8025C47.364 18.3275 38.257 20.2654 38.1866 14.0546C38.1632 10.9026 40.9799 8.4743 44.9699 8.4743C47.3405 8.4743 49.7112 9.05791 51.4011 10.3888L50.0397 13.8211C48.4907 12.8404 46.5661 12.1401 44.7352 12.1401C43.4912 12.1401 42.6698 12.7237 42.6698 13.4709C42.6933 15.8992 51.8706 14.5684 51.9645 20.4988C51.9645 23.721 49.2184 25.9859 45.2752 25.9859C42.388 25.9859 39.7357 25.3087 37.7173 23.8611V23.8611ZM93.5561 19.2847L97.5697 21.5029C96.0676 24.1879 93.2041 25.9859 89.8945 25.9859C85.0358 25.9859 81.0926 22.0633 81.0926 17.2301C81.0926 12.3969 85.0358 8.4743 89.8945 8.4743C93.1806 8.4743 96.0676 10.2954 97.5697 12.9574L93.5561 15.1753C92.8284 13.9145 91.467 13.0507 89.8945 13.0507C87.5707 13.0507 85.6931 14.9185 85.6931 17.2301C85.6931 19.5417 87.5707 21.4095 89.8945 21.4095C91.467 21.4095 92.8284 20.5455 93.5559 19.2847H93.5561ZM53.9829 1.21277H59.0059V25.6589H53.9829V1.21277V1.21277ZM99.5412 1.21277H104.564V15.5722L110.244 8.82447H116.394L109.376 16.9497L116.957 25.6589H110.526L104.564 18.3275V25.6589H99.5412V1.21277ZM73.9339 19.3316V15.1987C73.2062 13.9845 71.704 13.0507 70.0142 13.0507C67.6902 13.0507 65.8128 14.9185 65.8128 17.2301C65.8128 19.5417 67.6902 21.4095 70.0142 21.4095C71.704 21.4095 73.2062 20.5222 73.9339 19.3314V19.3316ZM73.9339 8.82469H78.9568V25.6358H73.9339V23.6512C73.1123 25.0288 71.0702 25.9861 68.9344 25.9861C64.5216 25.9861 61.048 22.0636 61.048 17.207C61.048 12.3504 64.5216 8.47453 68.9344 8.47453C71.0702 8.47453 73.1123 9.43188 73.9339 10.8094V8.82424V8.82469Z" fill="white" fill-opacity="0.2"/>
<path d="M6.66444 19.308C6.66444 21.0124 5.27963 22.3902 3.56605 22.3902C3.15907 22.3906 2.756 22.3111 2.37993 22.1564C2.00385 22.0016 1.66215 21.7746 1.37438 21.4883C1.08661 21.202 0.858417 20.8621 0.702871 20.488C0.547326 20.1138 0.467478 19.7129 0.467897 19.308C0.467897 17.6036 1.8527 16.2261 3.56605 16.2261H6.66444V19.308ZM8.21351 19.308C8.21351 17.6036 9.59832 16.2261 11.3117 16.2261C13.025 16.2261 14.4101 17.6036 14.4101 19.308V27.0131C14.4101 28.7175 13.0252 30.0953 11.3117 30.0953C10.9047 30.0956 10.5017 30.0161 10.1256 29.8614C9.74956 29.7066 9.40789 29.4796 9.12014 29.1933C8.83239 28.907 8.60423 28.5671 8.44869 28.193C8.29316 27.8189 8.21332 27.4179 8.21374 27.0131V19.308H8.21351Z" fill="white" fill-opacity="0.2"/>
<path d="M11.3116 6.93333C10.9046 6.93369 10.5016 6.85421 10.1255 6.69944C9.74947 6.54466 9.40779 6.31764 9.12005 6.03136C8.8323 5.74507 8.60413 5.40515 8.4486 5.03105C8.29307 4.65694 8.21323 4.256 8.21365 3.85117C8.21342 2.14678 9.59823 0.769226 11.3116 0.769226C13.0249 0.769226 14.41 2.14678 14.41 3.85117V6.93333H11.3116V6.93333ZM11.3116 8.49765C13.0249 8.49765 14.41 9.8752 14.41 11.5796C14.41 13.284 13.0252 14.6618 11.3116 14.6618H3.54249C3.13551 14.6621 2.73244 14.5827 2.35637 14.4279C1.98029 14.2732 1.63859 14.0461 1.35082 13.7599C1.06305 13.4736 0.834857 13.1336 0.679312 12.7595C0.523766 12.3854 0.443918 11.9844 0.444338 11.5796C0.444338 9.8752 1.82914 8.49787 3.54249 8.49787H11.3118L11.3116 8.49765Z" fill="white" fill-opacity="0.2"/>
<path d="M23.728 11.5796C23.728 9.8752 25.1128 8.49765 26.8262 8.49765C28.5395 8.49765 29.9246 9.8752 29.9246 11.5796C29.9246 13.284 28.5398 14.6618 26.8262 14.6618H23.728V11.5796V11.5796ZM22.1787 11.5796C22.1787 13.284 20.7942 14.6618 19.0806 14.6618C18.6736 14.6621 18.2705 14.5827 17.8945 14.4279C17.5184 14.2732 17.1767 14.0461 16.8889 13.7599C16.6011 13.4736 16.3729 13.1336 16.2174 12.7595C16.0619 12.3854 15.982 11.9844 15.9824 11.5796V3.85117C15.9824 2.14678 17.3672 0.769226 19.0806 0.769226C20.7939 0.769226 22.179 2.14678 22.179 3.85117V11.5798L22.1787 11.5796Z" fill="white" fill-opacity="0.2"/>
<path d="M19.0806 23.9312C20.7939 23.9312 22.179 25.3087 22.179 27.0131C22.179 28.7175 20.7942 30.0953 19.0806 30.0953C18.6736 30.0956 18.2705 30.0162 17.8945 29.8614C17.5184 29.7067 17.1767 29.4796 16.8889 29.1934C16.6011 28.9071 16.3729 28.5671 16.2174 28.193C16.0619 27.8189 15.982 27.4179 15.9824 27.0131V23.9312H19.0806V23.9312ZM19.0806 22.39C18.6736 22.3903 18.2706 22.3109 17.8945 22.1561C17.5184 22.0014 17.1768 21.7744 16.889 21.4881C16.6012 21.2019 16.373 20.862 16.2175 20.4879C16.0619 20.1138 15.982 19.7128 15.9824 19.308C15.9824 17.6036 17.3672 16.2261 19.0806 16.2261H26.8499C28.5632 16.2261 29.948 17.6036 29.948 19.308C29.948 21.0124 28.5632 22.3902 26.8497 22.3902H19.0806V22.39Z" fill="white" fill-opacity="0.2"/>
</g>
<defs>
<clipPath id="clip0_41796_22">
<rect width="116.654" height="29.4641" fill="white" transform="translate(0.444336 0.769226)"/>
</clipPath>
</defs>
</svg>
