<svg width="15" height="13" viewBox="0 0 15 13" fill="none" xmlns="http://www.w3.org/2000/svg">
<path d="M8.75419 7.12135H8.06461V6.43364C8.06461 6.25125 7.99196 6.07633 7.86263 5.94736C7.73331 5.8184 7.55791 5.74594 7.37502 5.74594C7.19214 5.74594 7.01674 5.8184 6.88742 5.94736C6.75809 6.07633 6.68544 6.25125 6.68544 6.43364V7.12135H5.99586C5.81297 7.12135 5.63757 7.1938 5.50825 7.32277C5.37893 7.45174 5.30627 7.62666 5.30627 7.80905C5.30627 7.99144 5.37893 8.16636 5.50825 8.29533C5.63757 8.4243 5.81297 8.49675 5.99586 8.49675H6.68544V9.18445C6.68544 9.36684 6.75809 9.54176 6.88742 9.67073C7.01674 9.7997 7.19214 9.87215 7.37502 9.87215C7.55791 9.87215 7.73331 9.7997 7.86263 9.67073C7.99196 9.54176 8.06461 9.36684 8.06461 9.18445V8.49675H8.75419C8.93708 8.49675 9.11248 8.4243 9.2418 8.29533C9.37112 8.16636 9.44377 7.99144 9.44377 7.80905C9.44377 7.62666 9.37112 7.45174 9.2418 7.32277C9.11248 7.1938 8.93708 7.12135 8.75419 7.12135Z" fill="white" fill-opacity="0.38"/>
<path d="M12.547 3.02951H7.71987L5.90627 0.842621C5.8421 0.763733 5.76121 0.7 5.6694 0.656005C5.57759 0.612009 5.47715 0.588843 5.37529 0.588171H2.20321C1.75264 0.582655 1.31824 0.755417 0.995124 1.06863C0.672009 1.38184 0.486511 1.80997 0.479248 2.25929V10.608C0.486511 11.0573 0.672009 11.4854 0.995124 11.7987C1.31824 12.1119 1.75264 12.2846 2.20321 12.2791H12.547C12.9975 12.2846 13.4319 12.1119 13.755 11.7987C14.0782 11.4854 14.2637 11.0573 14.2709 10.608V4.70063C14.2637 4.25132 14.0782 3.82318 13.755 3.50997C13.4319 3.19676 12.9975 3.024 12.547 3.02951V3.02951ZM12.8917 10.5942C12.8892 10.6364 12.8781 10.6777 12.8592 10.7156C12.8404 10.7534 12.8141 10.7871 12.782 10.8147C12.7498 10.8423 12.7125 10.8631 12.6721 10.8761C12.6317 10.889 12.5892 10.8937 12.547 10.89H2.20321C2.16098 10.8937 2.11843 10.889 2.07806 10.8761C2.0377 10.8631 2.00034 10.8423 1.96819 10.8147C1.93605 10.7871 1.90978 10.7534 1.89092 10.7156C1.87207 10.6777 1.86101 10.6364 1.85841 10.5942V2.25929C1.86101 2.21709 1.87207 2.17584 1.89092 2.13797C1.90978 2.1001 1.93605 2.06639 1.96819 2.03882C2.00034 2.01125 2.0377 1.99039 2.07806 1.97747C2.11843 1.96454 2.16098 1.95982 2.20321 1.96358H5.05119L6.8441 4.15047C6.90827 4.22936 6.98917 4.29309 7.08098 4.33709C7.17278 4.38108 7.27323 4.40425 7.37508 4.40492H12.547C12.5892 4.40116 12.6317 4.40589 12.6721 4.41881C12.7125 4.43174 12.7498 4.4526 12.782 4.48016C12.8141 4.50773 12.8404 4.54145 12.8592 4.57931C12.8781 4.61718 12.8892 4.65843 12.8917 4.70063V10.5942Z" fill="white" fill-opacity="0.38"/>
</svg>
