<svg width="44" height="45" viewBox="0 0 44 45" fill="none" xmlns="http://www.w3.org/2000/svg">
<path d="M9.73339 23.8C1.93342 29.5408 0.400024 37.9334 0.400024 44.9334C0.755581 42.8445 2.38669 37.9467 6.06669 35.0667C11.5334 30.7884 21.5333 32.1978 32.4667 24.9334C43.4001 17.6689 44.4667 8.20002 43.0667 0.93335C42.094 7.94512 38.7744 11.001 34.2 13.7334C24.2668 19.6667 18.0668 17.6667 9.73339 23.8Z" fill="url(#paint0_linear_50_199)"/>
<path d="M9.73339 23.8C1.93342 29.5408 0.400024 37.9334 0.400024 44.9334C0.755581 42.8445 2.38669 37.9467 6.06669 35.0667C11.5334 30.7884 21.5333 32.1978 32.4667 24.9334C43.4001 17.6689 44.4667 8.20002 43.0667 0.93335C42.094 7.94512 38.7744 11.001 34.2 13.7334C24.2668 19.6667 18.0668 17.6667 9.73339 23.8Z" fill="url(#paint1_linear_50_199)"/>
<path d="M0.493286 42.0639C0.921297 35.739 2.97503 28.774 9.73333 23.8C14.0777 20.6025 17.8422 19.6155 21.8582 18.5626C24.2018 17.9482 26.6311 17.3113 29.3112 16.1995C28.3334 17.1333 23.6871 19.3133 20.1825 20.7699C16.6871 22.2227 13.0018 23.7543 9.93337 25.8C3.77698 29.9042 1.27374 37.045 0.493286 42.0639Z" fill="url(#paint2_linear_50_199)"/>
<path d="M0.493286 42.0639C0.921297 35.739 2.97503 28.774 9.73333 23.8C14.0777 20.6025 17.8422 19.6155 21.8582 18.5626C24.2018 17.9482 26.6311 17.3113 29.3112 16.1995C28.3334 17.1333 23.6871 19.3133 20.1825 20.7699C16.6871 22.2227 13.0018 23.7543 9.93337 25.8C3.77698 29.9042 1.27374 37.045 0.493286 42.0639Z" fill="url(#paint3_linear_50_199)"/>
<path d="M38.4355 19.7418C37.6689 20.4927 36.8141 21.1649 35.8668 21.7333C31.6001 24.2934 27.065 25.1189 22.6522 25.9223C19.1357 26.5624 15.6969 27.1884 12.5334 28.6667C5.40058 31.9998 1.00069 38.9324 0.400226 44.9322C0.400183 44.9324 0.40014 44.9327 0.400097 44.9329C0.400073 44.9318 0.400049 44.9308 0.400024 44.9297C0.400059 44.4717 0.406661 44.0078 0.421154 43.539C0.457497 42.7953 0.534385 41.9713 0.661607 41.0926C1.60328 36.1584 4.16441 29.646 9.93341 25.8C12.3756 24.1719 15.2084 22.8693 18.0254 21.673C20.5027 20.8597 22.7354 20.3535 24.8626 19.8712C28.2111 19.1121 31.2983 18.4122 34.6668 16.6667C41.7349 13.0041 43.5868 5.47761 43.089 1.05029C44.1458 6.66005 43.7186 13.5598 38.4355 19.7418Z" fill="url(#paint4_linear_50_199)"/>
<path d="M38.4353 19.7419C37.6687 20.4928 36.8141 21.165 35.8668 21.7334C31.6001 24.2934 27.065 25.119 22.6522 25.9223C19.1357 26.5624 15.6969 27.1884 12.5334 28.6667C8.43133 30.5836 5.23312 33.691 3.14166 37.1268C4.98704 34.5337 7.79832 31.637 11.2668 30.5334C14.6512 29.4565 17.8795 29.3452 21.2334 29.2296C22.1947 29.1965 23.1662 29.163 24.1548 29.1063C26.819 28.1365 29.611 26.8308 32.4667 24.9334C34.9282 23.2979 36.8896 21.5506 38.4353 19.7419Z" fill="url(#paint5_linear_50_199)"/>
<path d="M38.4353 19.7419C37.6687 20.4928 36.8141 21.165 35.8668 21.7334C31.6001 24.2934 27.065 25.119 22.6522 25.9223C19.1357 26.5624 15.6969 27.1884 12.5334 28.6667C8.43133 30.5836 5.23312 33.691 3.14166 37.1268C4.98704 34.5337 7.79832 31.637 11.2668 30.5334C14.6512 29.4565 17.8795 29.3452 21.2334 29.2296C22.1947 29.1965 23.1662 29.163 24.1548 29.1063C26.819 28.1365 29.611 26.8308 32.4667 24.9334C34.9282 23.2979 36.8896 21.5506 38.4353 19.7419Z" fill="url(#paint6_linear_50_199)"/>
<path d="M43.0889 1.05029C43.0816 1.01125 43.0741 0.972267 43.0666 0.93335C42.0939 7.94512 38.7744 11.001 34.2 13.7334C32.4671 14.7684 30.8479 15.5621 29.3111 16.1996C28.3331 17.1335 23.687 19.3134 20.1825 20.7699L20.1819 20.7701C19.4687 21.0666 18.7476 21.3663 18.0254 21.673C20.5027 20.8597 22.7353 20.3535 24.8625 19.8712C28.2111 19.1121 31.2982 18.4122 34.6667 16.6667C41.7349 13.0041 43.5867 5.47761 43.0889 1.05029Z" fill="url(#paint7_linear_50_199)"/>
<path d="M43.0889 1.05029C43.0816 1.01125 43.0741 0.972267 43.0666 0.93335C42.0939 7.94512 38.7744 11.001 34.2 13.7334C32.4671 14.7684 30.8479 15.5621 29.3111 16.1996C28.3331 17.1335 23.687 19.3134 20.1825 20.7699L20.1819 20.7701C19.4687 21.0666 18.7476 21.3663 18.0254 21.673C20.5027 20.8597 22.7353 20.3535 24.8625 19.8712C28.2111 19.1121 31.2982 18.4122 34.6667 16.6667C41.7349 13.0041 43.5867 5.47761 43.0889 1.05029Z" fill="url(#paint8_linear_50_199)"/>
<defs>
<linearGradient id="paint0_linear_50_199" x1="24.8" y1="27.4" x2="1.73336" y2="43.9333" gradientUnits="userSpaceOnUse">
<stop stop-color="#FE5004"/>
<stop offset="0.602538" stop-color="#FFB915"/>
<stop offset="1" stop-color="#FFFC41"/>
</linearGradient>
<linearGradient id="paint1_linear_50_199" x1="15.6667" y1="28.8" x2="15.8" y2="31.2" gradientUnits="userSpaceOnUse">
<stop stop-color="#FD3E00"/>
<stop offset="1" stop-color="#FD4400" stop-opacity="0"/>
</linearGradient>
<linearGradient id="paint2_linear_50_199" x1="29.3333" y1="15" x2="-3.20001" y2="43.9333" gradientUnits="userSpaceOnUse">
<stop stop-color="#005FC6"/>
<stop offset="0.279756" stop-color="#23A4DF"/>
<stop offset="0.465158" stop-color="#3AC2B7"/>
<stop offset="0.640642" stop-color="#60EC7A"/>
<stop offset="0.818668" stop-color="#CFFDBD"/>
<stop offset="1" stop-color="#D0FCB6"/>
</linearGradient>
<linearGradient id="paint3_linear_50_199" x1="22.7333" y1="20.5333" x2="19.9333" y2="18" gradientUnits="userSpaceOnUse">
<stop stop-color="#0061CB"/>
<stop offset="1" stop-color="#067EEA" stop-opacity="0"/>
</linearGradient>
<linearGradient id="paint4_linear_50_199" x1="43.2" y1="1.00002" x2="0.400028" y2="44.8667" gradientUnits="userSpaceOnUse">
<stop stop-color="#8E55F1"/>
<stop offset="0.140795" stop-color="#8B48DF"/>
<stop offset="0.274905" stop-color="#E04DD9"/>
<stop offset="0.492309" stop-color="#F496C8"/>
<stop offset="0.633104" stop-color="#FAD2BA"/>
<stop offset="0.856964" stop-color="#FEF7E5"/>
<stop offset="1" stop-color="#FFF5BF"/>
</linearGradient>
<linearGradient id="paint5_linear_50_199" x1="39" y1="19.3334" x2="4.06666" y2="35.1334" gradientUnits="userSpaceOnUse">
<stop stop-color="#F41A73"/>
<stop offset="0.399909" stop-color="#FC50A3"/>
<stop offset="0.584511" stop-color="#FE9485"/>
<stop offset="0.703104" stop-color="#FFAF88"/>
<stop offset="1" stop-color="#FFC385"/>
</linearGradient>
<linearGradient id="paint6_linear_50_199" x1="26.4" y1="24.2" x2="26.4667" y2="27.4" gradientUnits="userSpaceOnUse">
<stop stop-color="#9B0008"/>
<stop offset="1" stop-color="#EA115A" stop-opacity="0"/>
</linearGradient>
<linearGradient id="paint7_linear_50_199" x1="43.2" y1="4.60002" x2="11.6666" y2="25.2" gradientUnits="userSpaceOnUse">
<stop stop-color="#231283"/>
<stop offset="0.362865" stop-color="#7053C6"/>
<stop offset="0.466353" stop-color="#7272DB"/>
<stop offset="0.634311" stop-color="#399EE9"/>
<stop offset="1" stop-color="#00CFFF"/>
</linearGradient>
<linearGradient id="paint8_linear_50_199" x1="35.3333" y1="15" x2="36.7333" y2="16.8" gradientUnits="userSpaceOnUse">
<stop stop-color="#3F259D" stop-opacity="0"/>
<stop offset="1" stop-color="#412DAA"/>
</linearGradient>
</defs>
</svg>
