<svg width="292" height="224" viewBox="0 0 292 224" fill="none" xmlns="http://www.w3.org/2000/svg">
<path opacity="0.4" d="M168 81.2978C164.381 79.9715 161.784 79.9445 160.208 81.1895C158.591 82.4346 157.824 84.5458 157.824 87.496V103.465C157.824 106.497 157.399 109.014 156.504 111.017C155.61 113.101 154.12 114.563 152.077 115.429C150.076 116.322 147.351 116.539 143.902 116.133C140.539 115.754 136.324 114.617 131.3 112.776L128.916 111.883V99.2971L131.939 100.407C135.558 101.733 137.942 101.896 139.134 100.948C140.411 100.001 141.05 98.052 141.05 95.1018V81.0271C141.05 77.3461 141.603 74.4499 142.753 72.3387C143.86 70.2005 146.116 68.8471 149.48 68.2517C146.116 65.1931 143.86 62.1617 142.753 59.2114C141.646 56.2611 141.092 52.959 141.092 49.2779V35.2033C141.092 32.253 140.454 29.817 139.177 27.9494C137.984 26.1089 135.558 24.512 131.981 23.1857L128.959 22.076V9.48999L131.343 10.3832C136.367 12.2237 140.582 14.1996 143.945 16.2837C147.393 18.3949 150.118 20.6144 152.119 22.9962C154.205 25.3781 155.696 27.9224 156.547 30.6561C157.441 33.3086 157.867 36.1506 157.867 39.1821V55.1514C157.867 58.1017 158.676 60.8083 160.251 63.2173C161.869 65.6262 164.466 67.5209 168.042 68.8201L168 81.2978Z" fill="url(#paint0_linear_26_82)"/>
<path opacity="0.4" d="M76.8045 35.041C80.4234 36.3672 83.0204 36.3943 84.5957 35.1492C86.2135 33.9042 86.9799 31.793 86.9799 28.8427V12.8734C86.9799 9.84194 87.4056 7.32474 88.2997 5.32181C89.1937 3.23768 90.6413 1.77608 92.6423 0.88288C94.7284 0.0167475 97.4532 -0.199786 100.817 0.179147C104.265 0.585147 108.523 1.72195 113.546 3.58954L115.931 4.48274V17.0687L112.908 15.959C109.289 14.6327 106.862 14.4433 105.585 15.3906C104.393 16.365 103.797 18.3138 103.797 21.2911V35.3658C103.797 39.0198 103.243 41.943 102.094 44.0542C100.987 46.1924 98.7305 47.5458 95.3671 48.1412C98.7305 51.1998 100.987 54.2312 102.094 57.1815C103.201 60.1318 103.754 63.4339 103.754 67.115V81.1896C103.754 84.1399 104.35 86.5488 105.542 88.4164C106.82 90.284 109.246 91.908 112.865 93.2072L115.888 94.3169V106.903L113.504 106.01C108.48 104.169 104.223 102.166 100.774 100.082C97.4106 97.998 94.6859 95.7785 92.5997 93.3696C90.5987 91.0148 89.1512 88.4705 88.2997 85.7639C87.4056 83.1113 86.9799 80.2693 86.9799 77.2379V61.2686C86.9799 58.3183 86.1709 55.6116 84.5957 53.2027C82.9778 50.7938 80.3808 48.8991 76.8045 47.5999V35.041Z" fill="url(#paint1_linear_26_82)"/>
<path opacity="0.15" d="M180.304 3.48145L270.179 36.4757L270.136 173.46L180.261 140.493L180.304 3.48145Z" fill="url(#paint2_linear_26_82)"/>
<path d="M163.402 21.4265L234.927 47.6541V60.2401L163.402 34.0125V21.4265Z" fill="#587298"/>
<path opacity="0.2" d="M192.012 79.7009L259.791 104.575V142.658L192.012 117.784V79.7009Z" fill="url(#paint3_linear_26_82)"/>
<path opacity="0.15" d="M191.33 50.4961L260.131 75.7493V80.0529L191.33 54.7997V50.4961Z" fill="white"/>
<path opacity="0.15" d="M191.33 59.1572L250.807 80.9729V85.2765L191.33 63.4608V59.1572Z" fill="white"/>
<path opacity="0.15" d="M191.33 67.7104L241.824 86.224V90.5276L191.33 72.014V67.7104Z" fill="white"/>
<path opacity="0.2" d="M180.304 3.48145L270.179 36.4757V54.8269L180.261 21.8597L180.304 3.48145Z" fill="url(#paint4_linear_26_82)"/>
<path opacity="0.2" d="M202.74 21.0204C202.74 23.8083 200.186 25.1075 197.035 23.9436C193.885 22.7798 191.33 19.613 191.33 16.8251C191.33 14.0372 193.885 12.738 197.035 13.9019C200.186 15.0658 202.74 18.2596 202.74 21.0204Z" fill="white"/>
<path opacity="0.15" d="M18.3497 45.4346L295 146.934L294.957 284L18.3071 182.5L18.3497 45.4346Z" fill="url(#paint5_linear_26_82)"/>
<path d="M0 79.2136L71.4829 105.441V118.027L0 91.8267V79.2136Z" fill="#EA8C4F"/>
<path opacity="0.15" d="M36.9972 113.805L195.716 172.052V176.356L36.9972 118.109V113.805Z" fill="white"/>
<path opacity="0.15" d="M36.9972 122.466L173.917 172.702V177.006L36.9972 126.77V122.466Z" fill="white"/>
<path opacity="0.15" d="M36.9972 131.046L153.524 173.812V178.115L36.9972 135.35V131.046Z" fill="white"/>
<path opacity="0.2" d="M144.115 185.613L283.675 236.823V274.906L144.115 223.696V185.613Z" fill="url(#paint6_linear_26_82)"/>
<path opacity="0.15" d="M154.631 197.008L175.663 204.722V217.308L154.631 209.594V197.008Z" fill="white"/>
<path opacity="0.15" d="M180.389 207.077L201.421 214.791V227.377L180.389 219.663V207.077Z" fill="white"/>
<path opacity="0.15" d="M206.274 216.415L227.306 224.129V236.715L206.274 229.001V216.415Z" fill="white"/>
<path opacity="0.2" d="M11.0266 135.323L127.213 177.953V216.036L11.0266 173.379V135.323Z" fill="url(#paint7_linear_26_82)"/>
<path opacity="0.15" d="M22.7346 149.371L115.037 183.231V187.535L22.7346 153.674V149.371Z" fill="white"/>
<path opacity="0.15" d="M22.7346 158.032L96.6443 185.153V189.456L22.7346 162.308V158.032Z" fill="white"/>
<path opacity="0.2" d="M18.3495 45.4346L294.617 146.826V165.394L18.3495 64.0294V45.4346Z" fill="url(#paint8_linear_26_82)"/>
<path opacity="0.2" d="M48.45 65.7616C48.45 68.5495 45.8955 69.8487 42.745 68.6848C39.5945 67.521 37.04 64.3542 37.04 61.5663C37.04 58.7784 39.5945 57.4792 42.745 58.6431C45.8955 59.807 48.45 63.0008 48.45 65.7616Z" fill="white"/>
<defs>
<linearGradient id="paint0_linear_26_82" x1="192.506" y1="5.69135" x2="159.398" y2="95.9711" gradientUnits="userSpaceOnUse">
<stop stop-color="#424C57"/>
<stop offset="0.903" stop-color="white" stop-opacity="0"/>
</linearGradient>
<linearGradient id="paint1_linear_26_82" x1="152.25" y1="0.481507" x2="119.136" y2="90.7557" gradientUnits="userSpaceOnUse">
<stop stop-color="#414B56"/>
<stop offset="0.903" stop-color="white" stop-opacity="0"/>
</linearGradient>
<linearGradient id="paint2_linear_26_82" x1="271.869" y1="37.098" x2="231.058" y2="148.314" gradientUnits="userSpaceOnUse">
<stop stop-color="white"/>
<stop offset="1" stop-color="white" stop-opacity="0"/>
</linearGradient>
<linearGradient id="paint3_linear_26_82" x1="238.88" y1="96.8799" x2="227.537" y2="127.79" gradientUnits="userSpaceOnUse">
<stop stop-color="white"/>
<stop offset="1" stop-color="white" stop-opacity="0"/>
</linearGradient>
<linearGradient id="paint4_linear_26_82" x1="211.119" y1="3.76605" x2="222.978" y2="56.5787" gradientUnits="userSpaceOnUse">
<stop stop-color="#424C58"/>
<stop offset="1" stop-color="white" stop-opacity="0"/>
</linearGradient>
<linearGradient id="paint5_linear_26_82" x1="203.33" y1="113.299" x2="181.714" y2="172.219" gradientUnits="userSpaceOnUse">
<stop stop-color="white"/>
<stop offset="1" stop-color="white" stop-opacity="0"/>
</linearGradient>
<linearGradient id="paint6_linear_26_82" x1="226.878" y1="215.976" x2="215.535" y2="246.886" gradientUnits="userSpaceOnUse">
<stop stop-color="white"/>
<stop offset="1" stop-color="white" stop-opacity="0"/>
</linearGradient>
<linearGradient id="paint7_linear_26_82" x1="82.0828" y1="161.384" x2="70.7401" y2="192.294" gradientUnits="userSpaceOnUse">
<stop stop-color="#434D58"/>
<stop offset="1" stop-color="white" stop-opacity="0"/>
</linearGradient>
<linearGradient id="paint8_linear_26_82" x1="86.8976" y1="30.4739" x2="137.012" y2="164.005" gradientUnits="userSpaceOnUse">
<stop stop-color="#546F94"/>
<stop offset="1" stop-color="white" stop-opacity="0"/>
</linearGradient>
</defs>
</svg>
